<svg width="16" height="15" viewBox="0 0 16 15" fill="none" xmlns="http://www.w3.org/2000/svg">
<path d="M4.41186 7.05933C4.20455 6.85274 3.86767 6.85274 3.66036 7.05933C3.45306 7.26592 3.45306 7.60162 3.66036 7.80821L6.10921 10.2485C6.21286 10.3518 6.34243 10.4034 6.48495 10.4034C6.49791 10.4034 6.49791 10.4034 6.51087 10.4034C6.65339 10.3905 6.79592 10.326 6.89957 10.2098L13.0282 2.88887C13.2095 2.66937 13.1836 2.33367 12.9634 2.13999C12.7431 1.95923 12.4062 1.98505 12.2119 2.20455L6.44608 9.08646L4.41186 7.05933Z" fill="#5785CB"/>
<path d="M11.4862 1.1458C8.50616 -0.713476 4.68389 -0.27448 2.19618 2.20456C-0.732061 5.12259 -0.732061 9.88699 2.19618 12.805C3.6603 14.264 5.59087 15 7.50848 15C9.42609 15 11.3567 14.264 12.8208 12.805C15.3215 10.3131 15.749 6.49122 13.8703 3.52154C13.7148 3.27622 13.3909 3.19875 13.1447 3.35369C12.8985 3.50863 12.8208 3.83142 12.9763 4.07675C14.5959 6.63325 14.2201 9.91281 12.0693 12.0561C9.55566 14.561 5.44835 14.561 2.93472 12.0561C0.421097 9.55128 0.421097 5.45829 2.93472 2.95343C5.08556 0.82301 8.36363 0.448573 10.9291 2.03671C11.1753 2.19165 11.4992 2.11418 11.6547 1.86885C11.8102 1.62353 11.7324 1.30074 11.4862 1.1458Z" fill="#565656"/>
</svg>
