<svg width="33" height="35" viewBox="0 0 33 35" fill="none" xmlns="http://www.w3.org/2000/svg">
<rect width="33" height="33" rx="16.5" fill="#C2D5F7"/>
<path fill-rule="evenodd" clip-rule="evenodd" d="M14.938 12.0001C14.9586 12.0001 14.9793 12.0001 15 12.0001C15.0207 12.0001 15.0414 12.0001 15.0621 12.0001C15.3079 11.9997 15.5495 11.9994 15.7647 12.048C16.3399 12.1781 16.7891 12.5571 16.9432 13.0424C17.0009 13.224 17.0005 13.4278 17.0001 13.6352C17.0001 13.6527 17 13.6701 17 13.6876H22.3333C22.7015 13.6876 23 13.9394 23 14.2501C23 14.5607 22.7015 14.8125 22.3333 14.8125H17C17 14.83 17.0001 14.8475 17.0001 14.8649C17.0005 15.0723 17.0009 15.2762 16.9432 15.4578C16.7891 15.943 16.3399 16.3221 15.7647 16.4521C15.5495 16.5007 15.3079 16.5004 15.0621 16.5001C15.0414 16.5001 15.0207 16.5 15 16.5C14.9793 16.5 14.9586 16.5001 14.9379 16.5001C14.6921 16.5004 14.4505 16.5007 14.2353 16.4521C13.6601 16.3221 13.2109 15.943 13.0568 15.4578C12.9991 15.2761 12.9995 15.0723 12.9999 14.8649C13 14.8475 13 14.83 13 14.8125H11.6667C11.2985 14.8125 11 14.5607 11 14.2501C11 13.9394 11.2985 13.6876 11.6667 13.6876H13C13 13.6701 13 13.6527 12.9999 13.6352C12.9995 13.4278 12.9991 13.224 13.0568 13.0424C13.2109 12.5571 13.6601 12.1781 14.2353 12.048C14.4505 11.9994 14.6921 11.9997 14.938 12.0001ZM14.6657 13.1281C14.5946 13.1308 14.5779 13.1352 14.5804 13.1347C14.4654 13.1607 14.3755 13.2365 14.3447 13.3335C14.3441 13.3355 14.3398 13.3528 14.3369 13.4055C14.3335 13.4686 14.3333 13.5517 14.3333 13.6876V14.8125C14.3333 14.9484 14.3335 15.0316 14.3369 15.0946C14.3401 15.1546 14.3454 15.1687 14.3447 15.1666C14.3755 15.2636 14.4654 15.3394 14.5804 15.3655C14.5779 15.3649 14.5946 15.3693 14.6657 15.372C14.7404 15.3749 14.839 15.375 15 15.375C15.1611 15.375 15.2596 15.3749 15.3343 15.372C15.4053 15.3693 15.4221 15.3649 15.4196 15.3655C15.5347 15.3394 15.6245 15.2636 15.6553 15.1666C15.6547 15.1687 15.6599 15.1546 15.6631 15.0946C15.6665 15.0316 15.6667 14.9484 15.6667 14.8125V13.6876C15.6667 13.5517 15.6665 13.4686 15.6631 13.4055C15.6599 13.3456 15.6547 13.3314 15.6553 13.3335M14.6657 13.1281C14.7404 13.1252 14.839 13.1251 15 13.1251L14.6657 13.1281ZM15 13.1251C15.1611 13.1251 15.2596 13.1252 15.3343 13.1281L15 13.1251ZM15.3343 13.1281C15.3968 13.1305 15.4173 13.1342 15.4196 13.1347L15.3343 13.1281ZM18.9379 16.4999C18.9586 16.5 18.9793 16.5 19 16.5C19.0207 16.5 19.0414 16.5 19.0621 16.4999C19.3079 16.4996 19.5495 16.4993 19.7647 16.5479C20.3399 16.678 20.7891 17.057 20.9432 17.5423C21.0009 17.7239 21.0005 17.9277 21.0001 18.1351C21.0001 18.1525 21 18.17 21 18.1875H22.3333C22.7015 18.1875 23 18.4393 23 18.7499C23 19.0606 22.7015 19.3124 22.3333 19.3124H21C21 19.3299 21.0001 19.3474 21.0001 19.3648C21.0005 19.5722 21.0009 19.776 20.9432 19.9577C20.7891 20.4429 20.3399 20.822 19.7647 20.952C19.5495 21.0006 19.3079 21.0003 19.0621 20.9999C19.0414 20.9999 19.0207 20.9999 19 20.9999C18.9793 20.9999 18.9586 20.9999 18.9379 20.9999C18.6921 21.0003 18.4505 21.0006 18.2353 20.952C17.6601 20.822 17.2109 20.4429 17.0568 19.9577C16.9991 19.776 16.9995 19.5722 16.9999 19.3648C16.9999 19.3474 17 19.3299 17 19.3124H11.6667C11.2985 19.3124 11 19.0606 11 18.7499C11 18.4393 11.2985 18.1875 11.6667 18.1875H17C17 18.17 16.9999 18.1525 16.9999 18.1351C16.9995 17.9277 16.9991 17.7239 17.0568 17.5423C17.2109 17.057 17.6601 16.678 18.2353 16.5479C18.4505 16.4993 18.6921 16.4996 18.9379 16.4999ZM18.6657 17.628C18.5947 17.6307 18.5779 17.6351 18.5804 17.6345C18.4653 17.6606 18.3755 17.7364 18.3447 17.8334C18.3453 17.8313 18.3401 17.8455 18.3369 17.9054C18.3335 17.9684 18.3333 18.0516 18.3333 18.1875V19.3124C18.3333 19.4483 18.3335 19.5315 18.3369 19.5945C18.3401 19.6545 18.3453 19.6686 18.3447 19.6665C18.3755 19.7635 18.4653 19.8393 18.5804 19.8654C18.5779 19.8648 18.5947 19.8692 18.6657 19.8719C18.7404 19.8748 18.8389 19.8749 19 19.8749C19.1611 19.8749 19.2596 19.8748 19.3343 19.8719C19.4053 19.8692 19.4221 19.8648 19.4196 19.8654C19.5347 19.8393 19.6245 19.7635 19.6553 19.6665C19.6547 19.6686 19.6599 19.6545 19.6631 19.5945C19.6665 19.5315 19.6667 19.4483 19.6667 19.3124V18.1875C19.6667 18.0516 19.6665 17.9684 19.6631 17.9054C19.6599 17.8455 19.6547 17.8313 19.6553 17.8334C19.6245 17.7364 19.5347 17.6606 19.4196 17.6345C19.4221 17.6351 19.4053 17.6307 19.3343 17.628C19.2596 17.6251 19.1611 17.625 19 17.625C18.8389 17.625 18.7404 17.6251 18.6657 17.628Z" fill="#717171"/>
</svg>
