<svg width="40" height="25" viewBox="0 0 40 25" fill="none" xmlns="http://www.w3.org/2000/svg">
<circle cx="8.49991" cy="8.49991" r="8.24991" stroke="#E9E9E9" stroke-width="0.5"/>
<circle cx="30.7299" cy="8.49991" r="8.24991" stroke="#E9E9E9" stroke-width="0.5"/>
<path d="M31.6 5.608H30.496V4.504H31.6V5.608ZM31.54 13H30.556V7.06H31.54V13Z" fill="#BEBEBE"/>
<line x1="7.62939e-06" y1="24.5959" x2="39.2303" y2="24.5959" stroke="#C3C3C3" stroke-width="0.5"/>
<path fill-rule="evenodd" clip-rule="evenodd" d="M6.32316 5C6.14469 5 6 5.13753 6 5.30719V11.451C6 11.6206 6.14469 11.7582 6.32316 11.7582C6.50164 11.7582 6.64633 11.6206 6.64633 11.451V8.87007C6.79693 8.7988 7.03501 8.69945 7.29023 8.63881C7.74803 8.53004 8.11542 8.57019 8.31644 8.85676C8.69163 9.3917 9.40815 9.43883 9.9596 9.38661C10.5415 9.3315 11.1172 9.15035 11.4083 9.04802C11.664 8.95814 11.8169 8.72731 11.8169 8.48378V6.45097C11.8169 5.9744 11.2863 5.69617 10.8633 5.8785C10.5203 6.02638 10.0646 6.19151 9.65275 6.24605C9.22191 6.30312 8.97169 6.2259 8.85418 6.0584C8.43022 5.45391 7.70488 5.38235 7.18502 5.42353C6.98546 5.43934 6.80002 5.47251 6.64633 5.50763V5.30719C6.64633 5.13753 6.50164 5 6.32316 5ZM6.64633 6.14307V8.19621C6.78879 8.14092 6.95532 8.0851 7.13349 8.04277C7.64519 7.92119 8.40886 7.88104 8.85418 8.51594C9.00885 8.73647 9.36527 8.82546 9.89551 8.77527C10.3872 8.7287 10.8934 8.57326 11.1706 8.47653V6.45097C11.1706 6.43701 11.1409 6.43342 11.1302 6.43803C10.7691 6.59371 10.2462 6.78776 9.74195 6.85455C9.25672 6.91883 8.6533 6.87954 8.31644 6.39921C8.09407 6.08218 7.68834 6.00017 7.2387 6.03578C7.00958 6.05393 6.79636 6.10166 6.64633 6.14307Z" fill="#B5B5B5"/>
</svg>
