<svg width="16" height="15" viewBox="0 0 16 15" fill="none" xmlns="http://www.w3.org/2000/svg">
<circle cx="7.5" cy="7.5" r="7" stroke="#272952"/>
<path d="M6.66406 12V6H8.32813V12H6.66406ZM7.5 5.22656C7.2526 5.22656 7.04036 5.14453 6.86328 4.98047C6.6888 4.8138 6.60156 4.61458 6.60156 4.38281C6.60156 4.15365 6.6888 3.95703 6.86328 3.79297C7.04036 3.6263 7.2526 3.54297 7.5 3.54297C7.7474 3.54297 7.95833 3.6263 8.13281 3.79297C8.3099 3.95703 8.39844 4.15365 8.39844 4.38281C8.39844 4.61458 8.3099 4.8138 8.13281 4.98047C7.95833 5.14453 7.7474 5.22656 7.5 5.22656Z" fill="#6F6F6F"/>
</svg>
