<svg width="17" height="16" viewBox="0 0 17 16" fill="none" xmlns="http://www.w3.org/2000/svg">
<path fill-rule="evenodd" clip-rule="evenodd" d="M0.893386 1.88235H2.67527V3.7647H9.80278V1.88235H11.5847V3.29412H12.4756V0.941171H9.72677C9.54326 0.39285 9.04829 0 8.46636 0H4.01168C3.4298 0 2.93477 0.39285 2.75131 0.941171H0.00244141V16H12.4756V13.1765H11.5847V15.0588H0.893386V1.88235ZM3.56621 2.82353V1.41176C3.56621 1.15186 3.76566 0.941171 4.01168 0.941171H8.46636C8.71243 0.941171 8.91189 1.15186 8.91189 1.41176V2.82353H3.56621Z" fill="#6C6C6C"/>
<path fill-rule="evenodd" clip-rule="evenodd" d="M14.0143 4.18799L15.901 6.18108C16.0849 6.3754 16.0849 6.69031 15.901 6.88563L10.2409 12.8649C10.1522 12.9575 10.0324 13.0104 9.90696 13.0104H8.02025C7.7599 13.0104 7.54858 12.7871 7.54858 12.5121V10.519C7.54858 10.3864 7.59858 10.2599 7.68631 10.1673L13.3464 4.18799C13.5313 3.99267 13.8294 3.99267 14.0143 4.18799ZM12.7163 6.26279L13.936 7.55132L14.9001 6.53285L13.6803 5.24433L12.7163 6.26279ZM8.49195 12.0139H9.71168L13.269 8.25591L12.0493 6.96734L8.49195 10.7253V12.0139Z" fill="#5785CB"/>
</svg>
