<svg width="152" height="203" viewBox="0 0 152 203" fill="none" xmlns="http://www.w3.org/2000/svg">
<g filter="url(#filter0_d_1_175)">
<rect x="4" y="2" width="144" height="195" fill="white"/>
<rect x="4.25" y="2.25" width="143.5" height="194.5" stroke="#FF001F" stroke-width="0.5"/>
</g>
<circle cx="64.4999" cy="168.5" r="8.24991" stroke="#E9E9E9" stroke-width="0.5"/>
<circle cx="86.7299" cy="168.5" r="8.24991" stroke="#E9E9E9" stroke-width="0.5"/>
<path d="M87.6 165.608H86.496V164.504H87.6V165.608ZM87.54 173H86.556V167.06H87.54V173Z" fill="#BEBEBE"/>
<line x1="56" y1="184.596" x2="95.2303" y2="184.596" stroke="#C3C3C3" stroke-width="0.5"/>
<path fill-rule="evenodd" clip-rule="evenodd" d="M62.3232 165C62.1447 165 62 165.138 62 165.307V171.451C62 171.621 62.1447 171.758 62.3232 171.758C62.5016 171.758 62.6463 171.621 62.6463 171.451V168.87C62.7969 168.799 63.035 168.699 63.2902 168.639C63.748 168.53 64.1154 168.57 64.3164 168.857C64.6916 169.392 65.4082 169.439 65.9596 169.387C66.5415 169.331 67.1172 169.15 67.4083 169.048C67.664 168.958 67.8169 168.727 67.8169 168.484V166.451C67.8169 165.974 67.2863 165.696 66.8633 165.879C66.5203 166.026 66.0646 166.192 65.6528 166.246C65.2219 166.303 64.9717 166.226 64.8542 166.058C64.4302 165.454 63.7049 165.382 63.185 165.424C62.9855 165.439 62.8 165.473 62.6463 165.508V165.307C62.6463 165.138 62.5016 165 62.3232 165ZM62.6463 166.143V168.196C62.7888 168.141 62.9553 168.085 63.1335 168.043C63.6452 167.921 64.4089 167.881 64.8542 168.516C65.0088 168.736 65.3653 168.825 65.8955 168.775C66.3872 168.729 66.8934 168.573 67.1706 168.477V166.451C67.1706 166.437 67.1409 166.433 67.1302 166.438C66.7691 166.594 66.2462 166.788 65.7419 166.855C65.2567 166.919 64.6533 166.88 64.3164 166.399C64.0941 166.082 63.6883 166 63.2387 166.036C63.0096 166.054 62.7964 166.102 62.6463 166.143Z" fill="#B5B5B5"/>
<g filter="url(#filter1_d_1_175)">
<circle cx="76" cy="100" r="38" fill="white"/>
<circle cx="76" cy="100" r="37" stroke="#FF001F" stroke-width="2"/>
</g>
<path d="M66.6378 94.5455V104H66.0607V95.1548H66.0053L63.8817 96.5629V95.9442L65.9869 94.5455H66.6378ZM69.6743 104V103.561L72.735 100.034C73.172 99.5297 73.5183 99.1019 73.7737 98.7511C74.0291 98.4002 74.2123 98.0832 74.3231 97.8001C74.4339 97.5169 74.4893 97.2215 74.4893 96.9137C74.4893 96.529 74.3985 96.1889 74.2169 95.8935C74.0384 95.5949 73.7937 95.3626 73.4829 95.1964C73.1751 95.0302 72.8242 94.9471 72.4303 94.9471C72.0179 94.9471 71.6563 95.0379 71.3454 95.2195C71.0346 95.401 70.7915 95.6473 70.616 95.9581C70.4437 96.2689 70.3575 96.6183 70.3575 97.006H69.7989C69.7989 96.5167 69.9128 96.0766 70.1405 95.6857C70.3683 95.2949 70.6807 94.9856 71.0777 94.7578C71.4778 94.5301 71.9333 94.4162 72.4442 94.4162C72.9458 94.4162 73.3921 94.5254 73.7829 94.744C74.1738 94.9625 74.4816 95.261 74.7062 95.6396C74.9309 96.015 75.0432 96.4397 75.0432 96.9137C75.0432 97.2615 74.9832 97.5969 74.8632 97.9201C74.7462 98.2402 74.5447 98.5987 74.2584 98.9957C73.9722 99.3897 73.5767 99.8759 73.072 100.455L70.5052 103.414V103.464H75.468V104H69.6743ZM82.4181 102.264V101.9C82.4181 101.539 82.4873 101.219 82.6258 100.939C82.7643 100.659 82.9566 100.439 83.2029 100.279C83.4521 100.116 83.7399 100.034 84.0661 100.034C84.3954 100.034 84.6832 100.116 84.9294 100.279C85.1756 100.439 85.3664 100.659 85.5019 100.939C85.6404 101.219 85.7096 101.539 85.7096 101.9V102.264C85.7096 102.624 85.6404 102.946 85.5019 103.229C85.3664 103.509 85.1741 103.729 84.9248 103.889C84.6786 104.049 84.3924 104.129 84.0661 104.129C83.7399 104.129 83.4521 104.049 83.2029 103.889C82.9566 103.729 82.7643 103.509 82.6258 103.229C82.4873 102.946 82.4181 102.624 82.4181 102.264ZM82.9305 101.9V102.264C82.9305 102.674 83.0336 103.011 83.2398 103.275C83.446 103.537 83.7214 103.668 84.0661 103.668C84.4108 103.668 84.6863 103.537 84.8925 103.275C85.0987 103.011 85.2018 102.674 85.2018 102.264V101.9C85.2018 101.49 85.0987 101.155 84.8925 100.893C84.6894 100.628 84.4139 100.496 84.0661 100.496C83.7245 100.496 83.4491 100.628 83.2398 100.893C83.0336 101.155 82.9305 101.49 82.9305 101.9ZM77.5985 96.646V96.2812C77.5985 95.9212 77.6677 95.6011 77.8062 95.321C77.9447 95.0379 78.137 94.8163 78.3833 94.6562C78.6325 94.4962 78.9203 94.4162 79.2465 94.4162C79.5758 94.4162 79.8636 94.4962 80.1098 94.6562C80.356 94.8163 80.5468 95.0379 80.6823 95.321C80.8208 95.6011 80.89 95.9212 80.89 96.2812V96.646C80.89 97.003 80.8208 97.323 80.6823 97.6062C80.5468 97.8862 80.3545 98.1078 80.1052 98.271C79.859 98.431 79.5728 98.511 79.2465 98.511C78.9203 98.511 78.6325 98.431 78.3833 98.271C78.137 98.1078 77.9447 97.8862 77.8062 97.6062C77.6677 97.323 77.5985 97.003 77.5985 96.646ZM78.1109 96.2812V96.646C78.1109 97.0553 78.214 97.3923 78.4202 97.657C78.6264 97.9186 78.9018 98.0494 79.2465 98.0494C79.5912 98.0494 79.8667 97.9186 80.0729 97.657C80.2791 97.3923 80.3822 97.0553 80.3822 96.646V96.2812C80.3822 95.8719 80.2791 95.5365 80.0729 95.2749C79.8698 95.0102 79.5943 94.8778 79.2465 94.8778C78.9049 94.8778 78.6295 95.0102 78.4202 95.2749C78.214 95.5365 78.1109 95.8719 78.1109 96.2812ZM78.097 104L84.5832 94.5455H85.1695L78.6833 104H78.097Z" fill="black"/>
<path d="M46.4467 28.3253V27.8182H50.9292V28.3253H48.9702V34H48.4057V28.3253H46.4467ZM51.6068 34V29.3636H52.129V30.076H52.1682C52.2608 29.8426 52.4218 29.6544 52.6512 29.5115C52.8826 29.3667 53.1442 29.2942 53.436 29.2942C53.4803 29.2942 53.5296 29.2952 53.5839 29.2972C53.6382 29.2992 53.6835 29.3013 53.7197 29.3033V29.8496C53.6956 29.8456 53.6533 29.8395 53.593 29.8315C53.5326 29.8234 53.4672 29.8194 53.3968 29.8194C53.1553 29.8194 52.94 29.8707 52.7508 29.9734C52.5637 30.074 52.4157 30.2138 52.3071 30.3929C52.1984 30.572 52.1441 30.7763 52.1441 31.0057V34H51.6068ZM57.5826 32.2282V29.3636H58.1199V34H57.5826V33.2303H57.5403C57.4317 33.4677 57.2596 33.666 57.0242 33.8249C56.7888 33.9819 56.501 34.0604 56.1609 34.0604C55.8651 34.0604 55.6025 33.996 55.3731 33.8672C55.1437 33.7364 54.9636 33.5452 54.8328 33.2937C54.702 33.0421 54.6366 32.7333 54.6366 32.367V29.3636H55.1739V32.3338C55.1739 32.696 55.2805 32.9878 55.4938 33.2092C55.7071 33.4285 55.9808 33.5382 56.3149 33.5382C56.5241 33.5382 56.7254 33.4879 56.9185 33.3873C57.1117 33.2866 57.2707 33.1397 57.3955 32.9466C57.5202 32.7514 57.5826 32.5119 57.5826 32.2282ZM62.6574 30.3809L62.1654 30.5197C62.1171 30.3809 62.0487 30.2551 61.9601 30.1424C61.8716 30.0297 61.7559 29.9402 61.613 29.8738C61.4722 29.8074 61.2971 29.7741 61.0878 29.7741C60.7739 29.7741 60.5163 29.8486 60.3151 29.9975C60.1138 30.1464 60.0132 30.3386 60.0132 30.574C60.0132 30.7733 60.0816 30.9353 60.2185 31.06C60.3573 31.1828 60.5706 31.2804 60.8584 31.3528L61.5587 31.5249C61.9471 31.6194 62.2378 31.7694 62.431 31.9746C62.6262 32.1799 62.7238 32.4374 62.7238 32.7473C62.7238 33.0089 62.6514 33.2414 62.5065 33.4446C62.3616 33.6478 62.1594 33.8078 61.8998 33.9245C61.6422 34.0392 61.3434 34.0966 61.0033 34.0966C60.5505 34.0966 60.1772 33.995 59.8834 33.7917C59.5896 33.5865 59.4015 33.2907 59.319 32.9043L59.8351 32.7775C59.9015 33.0532 60.0313 33.2615 60.2245 33.4023C60.4197 33.5432 60.6763 33.6136 60.9942 33.6136C61.3504 33.6136 61.6352 33.5342 61.8485 33.3752C62.0618 33.2142 62.1684 33.013 62.1684 32.7715C62.1684 32.5843 62.106 32.4274 61.9813 32.3006C61.8565 32.1718 61.6673 32.0772 61.4138 32.0169L60.6562 31.8358C60.2537 31.7392 59.9559 31.5862 59.7627 31.377C59.5695 31.1677 59.4729 30.9081 59.4729 30.5982C59.4729 30.3426 59.5423 30.1183 59.6812 29.9251C59.82 29.7299 60.0112 29.5769 60.2547 29.4663C60.4982 29.3556 60.7759 29.3002 61.0878 29.3002C61.5124 29.3002 61.8515 29.3968 62.105 29.59C62.3606 29.7812 62.5447 30.0448 62.6574 30.3809ZM65.7264 29.3636V29.8315H63.5139V29.3636H65.7264ZM64.2051 28.2528H64.7454V32.7896C64.7454 32.9828 64.7786 33.1347 64.845 33.2454C64.9114 33.354 64.998 33.4315 65.1046 33.4778C65.2113 33.5221 65.325 33.5442 65.4457 33.5442C65.5161 33.5442 65.5765 33.5402 65.6268 33.5321C65.6771 33.5221 65.7214 33.512 65.7596 33.502L65.8743 33.9879C65.822 34.008 65.7576 34.0262 65.6812 34.0423C65.6047 34.0604 65.5101 34.0694 65.3974 34.0694C65.2002 34.0694 65.01 34.0262 64.8269 33.9396C64.6458 33.8531 64.4969 33.7243 64.3802 33.5533C64.2635 33.3822 64.2051 33.1699 64.2051 32.9164V28.2528ZM67.9759 34L66.5754 29.3636H67.1428L68.2416 33.188H68.2808L69.3765 29.3636H69.947L71.0336 33.179H71.0759L72.1746 29.3636H72.7421L71.3415 34H70.7861L69.6874 30.1998H69.6301L68.5313 34H67.9759ZM75.4308 34.0966C75.0303 34.0966 74.6762 33.995 74.3683 33.7917C74.0624 33.5885 73.823 33.3078 73.6499 32.9496C73.4768 32.5894 73.3903 32.1738 73.3903 31.7029C73.3903 31.228 73.4768 30.8105 73.6499 30.4503C73.823 30.0881 74.0624 29.8063 74.3683 29.6051C74.6762 29.4019 75.0303 29.3002 75.4308 29.3002C75.8312 29.3002 76.1844 29.4019 76.4903 29.6051C76.7962 29.8084 77.0356 30.0901 77.2087 30.4503C77.3837 30.8105 77.4713 31.228 77.4713 31.7029C77.4713 32.1738 77.3848 32.5894 77.2117 32.9496C77.0386 33.3078 76.7982 33.5885 76.4903 33.7917C76.1844 33.995 75.8312 34.0966 75.4308 34.0966ZM75.4308 33.6046C75.7528 33.6046 76.0254 33.5181 76.2488 33.345C76.4722 33.1719 76.6412 32.9415 76.7559 32.6538C76.8726 32.366 76.931 32.0491 76.931 31.7029C76.931 31.3568 76.8726 31.0389 76.7559 30.7491C76.6412 30.4593 76.4722 30.2269 76.2488 30.0518C76.0254 29.8768 75.7528 29.7892 75.4308 29.7892C75.1108 29.7892 74.8382 29.8768 74.6128 30.0518C74.3894 30.2269 74.2194 30.4593 74.1027 30.7491C73.988 31.0389 73.9306 31.3568 73.9306 31.7029C73.9306 32.0491 73.988 32.366 74.1027 32.6538C74.2194 32.9415 74.3894 33.1719 74.6128 33.345C74.8362 33.5181 75.1088 33.6046 75.4308 33.6046ZM78.6507 34V29.3636H79.1729V30.076H79.2122C79.3047 29.8426 79.4657 29.6544 79.6951 29.5115C79.9266 29.3667 80.1882 29.2942 80.4799 29.2942C80.5242 29.2942 80.5735 29.2952 80.6278 29.2972C80.6822 29.2992 80.7275 29.3013 80.7637 29.3033V29.8496C80.7395 29.8456 80.6973 29.8395 80.6369 29.8315C80.5765 29.8234 80.5111 29.8194 80.4407 29.8194C80.1992 29.8194 79.9839 29.8707 79.7947 29.9734C79.6076 30.074 79.4597 30.2138 79.351 30.3929C79.2424 30.572 79.188 30.7763 79.188 31.0057V34H78.6507ZM83.7972 29.3636V29.8315H81.5847V29.3636H83.7972ZM82.2759 28.2528H82.8162V32.7896C82.8162 32.9828 82.8494 33.1347 82.9158 33.2454C82.9822 33.354 83.0688 33.4315 83.1754 33.4778C83.2821 33.5221 83.3958 33.5442 83.5165 33.5442C83.5869 33.5442 83.6473 33.5402 83.6976 33.5321C83.7479 33.5221 83.7922 33.512 83.8304 33.502L83.9451 33.9879C83.8928 34.008 83.8284 34.0262 83.752 34.0423C83.6755 34.0604 83.5809 34.0694 83.4682 34.0694C83.271 34.0694 83.0808 34.0262 82.8977 33.9396C82.7166 33.8531 82.5677 33.7243 82.451 33.5533C82.3343 33.3822 82.2759 33.1699 82.2759 32.9164V28.2528ZM85.6543 31.1023V34H85.1171V27.8182H85.6543V30.0911H85.7026C85.8113 29.8516 85.9793 29.6605 86.2067 29.5176C86.4361 29.3747 86.7259 29.3033 87.076 29.3033C87.39 29.3033 87.6656 29.3677 87.9031 29.4964C88.1406 29.6252 88.3257 29.8154 88.4585 30.0669C88.5913 30.3185 88.6577 30.6284 88.6577 30.9966V34H88.1174V31.0298C88.1174 30.6475 88.0108 30.3466 87.7975 30.1273C87.5862 29.906 87.3004 29.7953 86.9402 29.7953C86.6927 29.7953 86.4723 29.8476 86.2792 29.9522C86.086 30.0569 85.933 30.2078 85.8204 30.405C85.7097 30.6002 85.6543 30.8326 85.6543 31.1023ZM90.0787 34V29.3636H90.619V34H90.0787ZM90.3533 28.5668C90.2427 28.5668 90.1481 28.5295 90.0696 28.4551C89.9911 28.3786 89.9519 28.2871 89.9519 28.1804C89.9519 28.0737 89.9911 27.9832 90.0696 27.9087C90.1481 27.8323 90.2427 27.794 90.3533 27.794C90.464 27.794 90.5586 27.8323 90.6371 27.9087C90.7156 27.9832 90.7548 28.0737 90.7548 28.1804C90.7548 28.2871 90.7156 28.3786 90.6371 28.4551C90.5586 28.5295 90.464 28.5668 90.3533 28.5668ZM92.5772 31.1023V34H92.0399V29.3636H92.5621V30.0911H92.6104C92.7191 29.8536 92.8881 29.6635 93.1175 29.5206C93.3489 29.3757 93.6347 29.3033 93.9747 29.3033C94.2867 29.3033 94.5603 29.3687 94.7958 29.4995C95.0332 29.6283 95.2173 29.8184 95.3481 30.07C95.481 30.3215 95.5474 30.6304 95.5474 30.9966V34H95.0101V31.0298C95.0101 30.6495 94.9034 30.3487 94.6901 30.1273C94.4788 29.906 94.1951 29.7953 93.8389 29.7953C93.5954 29.7953 93.3791 29.8476 93.1899 29.9522C93.0008 30.0569 92.8509 30.2078 92.7402 30.405C92.6315 30.6002 92.5772 30.8326 92.5772 31.1023ZM98.8367 34.0966C98.4041 34.0966 98.0298 33.996 97.7139 33.7947C97.3979 33.5915 97.1534 33.3108 96.9804 32.9526C96.8093 32.5924 96.7238 32.1779 96.7238 31.709C96.7238 31.2421 96.8093 30.8276 96.9804 30.4654C97.1534 30.1011 97.3919 29.8164 97.6958 29.6112C98.0016 29.4039 98.3548 29.3002 98.7552 29.3002C99.0068 29.3002 99.2493 29.3465 99.4827 29.4391C99.7161 29.5297 99.9254 29.6695 100.111 29.8587C100.298 30.0458 100.446 30.2823 100.554 30.568C100.663 30.8517 100.717 31.1878 100.717 31.5762V31.8418H97.0951V31.3679H100.168C100.168 31.0701 100.108 30.8024 99.9868 30.565C99.868 30.3255 99.702 30.1364 99.4887 29.9975C99.2774 29.8587 99.0329 29.7892 98.7552 29.7892C98.4614 29.7892 98.2029 29.8677 97.9795 30.0247C97.7561 30.1816 97.5811 30.3889 97.4543 30.6465C97.3295 30.9041 97.2661 31.1858 97.2641 31.4917V31.7754C97.2641 32.1436 97.3275 32.4656 97.4543 32.7413C97.5831 33.015 97.7652 33.2273 98.0006 33.3782C98.2361 33.5291 98.5148 33.6046 98.8367 33.6046C99.0561 33.6046 99.2483 33.5704 99.4133 33.502C99.5803 33.4335 99.7201 33.342 99.8328 33.2273C99.9475 33.1106 100.034 32.9828 100.092 32.8439L100.603 33.0099C100.532 33.2051 100.416 33.3852 100.255 33.5502C100.096 33.7153 99.8972 33.8481 99.6578 33.9487C99.4203 34.0473 99.1466 34.0966 98.8367 34.0966ZM105.016 30.3809L104.524 30.5197C104.476 30.3809 104.408 30.2551 104.319 30.1424C104.23 30.0297 104.115 29.9402 103.972 29.8738C103.831 29.8074 103.656 29.7741 103.447 29.7741C103.133 29.7741 102.875 29.8486 102.674 29.9975C102.473 30.1464 102.372 30.3386 102.372 30.574C102.372 30.7733 102.441 30.9353 102.577 31.06C102.716 31.1828 102.93 31.2804 103.217 31.3528L103.918 31.5249C104.306 31.6194 104.597 31.7694 104.79 31.9746C104.985 32.1799 105.083 32.4374 105.083 32.7473C105.083 33.0089 105.01 33.2414 104.865 33.4446C104.72 33.6478 104.518 33.8078 104.259 33.9245C104.001 34.0392 103.702 34.0966 103.362 34.0966C102.909 34.0966 102.536 33.995 102.242 33.7917C101.949 33.5865 101.76 33.2907 101.678 32.9043L102.194 32.7775C102.26 33.0532 102.39 33.2615 102.583 33.4023C102.779 33.5432 103.035 33.6136 103.353 33.6136C103.709 33.6136 103.994 33.5342 104.207 33.3752C104.421 33.2142 104.527 33.013 104.527 32.7715C104.527 32.5843 104.465 32.4274 104.34 32.3006C104.215 32.1718 104.026 32.0772 103.773 32.0169L103.015 31.8358C102.613 31.7392 102.315 31.5862 102.122 31.377C101.928 31.1677 101.832 30.9081 101.832 30.5982C101.832 30.3426 101.901 30.1183 102.04 29.9251C102.179 29.7299 102.37 29.5769 102.614 29.4663C102.857 29.3556 103.135 29.3002 103.447 29.3002C103.871 29.3002 104.21 29.3968 104.464 29.59C104.719 29.7812 104.904 30.0448 105.016 30.3809ZM109.374 30.3809L108.882 30.5197C108.834 30.3809 108.765 30.2551 108.677 30.1424C108.588 30.0297 108.473 29.9402 108.33 29.8738C108.189 29.8074 108.014 29.7741 107.805 29.7741C107.491 29.7741 107.233 29.8486 107.032 29.9975C106.831 30.1464 106.73 30.3386 106.73 30.574C106.73 30.7733 106.798 30.9353 106.935 31.06C107.074 31.1828 107.287 31.2804 107.575 31.3528L108.275 31.5249C108.664 31.6194 108.955 31.7694 109.148 31.9746C109.343 32.1799 109.441 32.4374 109.441 32.7473C109.441 33.0089 109.368 33.2414 109.223 33.4446C109.078 33.6478 108.876 33.8078 108.617 33.9245C108.359 34.0392 108.06 34.0966 107.72 34.0966C107.267 34.0966 106.894 33.995 106.6 33.7917C106.306 33.5865 106.118 33.2907 106.036 32.9043L106.552 32.7775C106.618 33.0532 106.748 33.2615 106.941 33.4023C107.137 33.5432 107.393 33.6136 107.711 33.6136C108.067 33.6136 108.352 33.5342 108.565 33.3752C108.779 33.2142 108.885 33.013 108.885 32.7715C108.885 32.5843 108.823 32.4274 108.698 32.3006C108.573 32.1718 108.384 32.0772 108.131 32.0169L107.373 31.8358C106.97 31.7392 106.673 31.5862 106.479 31.377C106.286 31.1677 106.19 30.9081 106.19 30.5982C106.19 30.3426 106.259 30.1183 106.398 29.9251C106.537 29.7299 106.728 29.5769 106.972 29.4663C107.215 29.3556 107.493 29.3002 107.805 29.3002C108.229 29.3002 108.568 29.3968 108.822 29.59C109.077 29.7812 109.262 30.0448 109.374 30.3809Z" fill="black"/>
<path d="M59.8807 47V39.7273H62.4233C62.9299 39.7273 63.3478 39.8149 63.6768 39.9901C64.0059 40.1629 64.2509 40.3961 64.4119 40.6896C64.5729 40.9808 64.6534 41.304 64.6534 41.6591C64.6534 41.9716 64.5978 42.2296 64.4865 42.4332C64.3776 42.6368 64.2332 42.7978 64.0533 42.9162C63.8757 43.0346 63.6828 43.1222 63.4744 43.179V43.25C63.697 43.2642 63.9207 43.3423 64.1456 43.4844C64.3705 43.6264 64.5587 43.83 64.7102 44.0952C64.8617 44.3603 64.9375 44.6847 64.9375 45.0682C64.9375 45.4328 64.8546 45.7607 64.6889 46.0518C64.5232 46.343 64.2616 46.5739 63.9041 46.7443C63.5466 46.9148 63.0814 47 62.5085 47H59.8807ZM60.7614 46.2188H62.5085C63.0838 46.2188 63.4922 46.1075 63.7337 45.8849C63.9775 45.66 64.0994 45.3878 64.0994 45.0682C64.0994 44.822 64.0367 44.5947 63.9112 44.3864C63.7857 44.1757 63.607 44.0076 63.375 43.8821C63.143 43.7543 62.8684 43.6903 62.5511 43.6903H60.7614V46.2188ZM60.7614 42.9233H62.3949C62.66 42.9233 62.8991 42.8712 63.1122 42.767C63.3277 42.6629 63.4981 42.5161 63.6236 42.3267C63.7514 42.1373 63.8153 41.9148 63.8153 41.6591C63.8153 41.3395 63.7041 41.0684 63.4815 40.8459C63.259 40.621 62.9063 40.5085 62.4233 40.5085H60.7614V42.9233ZM66.271 47V41.5455H67.109V47H66.271ZM66.6971 40.6364C66.5337 40.6364 66.3929 40.5807 66.2745 40.4695C66.1585 40.3582 66.1005 40.2244 66.1005 40.0682C66.1005 39.9119 66.1585 39.7782 66.2745 39.6669C66.3929 39.5556 66.5337 39.5 66.6971 39.5C66.8604 39.5 67.0001 39.5556 67.1161 39.6669C67.2345 39.7782 67.2937 39.9119 67.2937 40.0682C67.2937 40.2244 67.2345 40.3582 67.1161 40.4695C67.0001 40.5807 66.8604 40.6364 66.6971 40.6364ZM70.2491 47.1278C69.9035 47.1278 69.5898 47.0627 69.3081 46.9325C69.0263 46.8 68.8026 46.6094 68.6369 46.3608C68.4712 46.1098 68.3883 45.8068 68.3883 45.4517C68.3883 45.1392 68.4499 44.8859 68.573 44.6918C68.6961 44.4953 68.8606 44.3414 69.0666 44.2301C69.2725 44.1188 69.4998 44.036 69.7484 43.9815C69.9993 43.9247 70.2515 43.8797 70.5048 43.8466C70.8362 43.804 71.1049 43.772 71.3109 43.7507C71.5192 43.727 71.6708 43.688 71.7654 43.6335C71.8625 43.5791 71.911 43.4844 71.911 43.3494V43.321C71.911 42.9706 71.8152 42.6984 71.6234 42.5043C71.434 42.3101 71.1464 42.2131 70.7605 42.2131C70.3604 42.2131 70.0467 42.3007 69.8194 42.4759C69.5922 42.651 69.4324 42.8381 69.34 43.0369L68.5446 42.7528C68.6866 42.4214 68.876 42.1634 69.1127 41.9787C69.3519 41.7917 69.6123 41.6615 69.894 41.5881C70.1781 41.5123 70.4574 41.4744 70.7321 41.4744C70.9073 41.4744 71.1085 41.4957 71.3358 41.5384C71.5654 41.5786 71.7868 41.6626 71.9998 41.7905C72.2153 41.9183 72.394 42.1113 72.536 42.3693C72.6781 42.6274 72.7491 42.973 72.7491 43.4062V47H71.911V46.2614H71.8684C71.8116 46.3797 71.7169 46.5064 71.5843 46.6413C71.4518 46.7763 71.2754 46.8911 71.0552 46.9858C70.835 47.0805 70.5663 47.1278 70.2491 47.1278ZM70.377 46.375C70.7084 46.375 70.9877 46.3099 71.215 46.1797C71.4447 46.0495 71.6175 45.8814 71.7335 45.6754C71.8519 45.4695 71.911 45.2528 71.911 45.0256V44.2585C71.8755 44.3011 71.7974 44.3402 71.6767 44.3757C71.5583 44.4089 71.421 44.4384 71.2647 44.4645C71.1109 44.4882 70.9605 44.5095 70.8137 44.5284C70.6693 44.545 70.5521 44.5592 70.4622 44.571C70.2444 44.5994 70.0408 44.6456 69.8514 44.7095C69.6644 44.7711 69.5128 44.8646 69.3968 44.9901C69.2832 45.1132 69.2264 45.2812 69.2264 45.4943C69.2264 45.7855 69.3341 46.0057 69.5495 46.1548C69.7673 46.3016 70.0431 46.375 70.377 46.375ZM78.1424 42.767L77.3896 42.9801C77.3422 42.8546 77.2724 42.7327 77.18 42.6143C77.0901 42.4936 76.967 42.3942 76.8107 42.3161C76.6545 42.2379 76.4544 42.1989 76.2106 42.1989C75.8768 42.1989 75.5986 42.2758 75.3761 42.4297C75.1559 42.5812 75.0458 42.7741 75.0458 43.0085C75.0458 43.2169 75.1216 43.3814 75.2731 43.5021C75.4246 43.6229 75.6613 43.7235 75.9833 43.804L76.793 44.0028C77.2807 44.1212 77.6441 44.3023 77.8832 44.5462C78.1223 44.7876 78.2418 45.099 78.2418 45.4801C78.2418 45.7926 78.1519 46.072 77.9719 46.3182C77.7944 46.5644 77.5458 46.7585 77.2262 46.9006C76.9066 47.0426 76.5349 47.1136 76.1112 47.1136C75.5548 47.1136 75.0943 46.9929 74.7298 46.7514C74.3652 46.5099 74.1344 46.1572 74.0373 45.6932L74.8327 45.4943C74.9085 45.7879 75.0517 46.008 75.2624 46.1548C75.4755 46.3016 75.7537 46.375 76.0969 46.375C76.4876 46.375 76.7977 46.2921 77.0273 46.1264C77.2594 45.9583 77.3754 45.7571 77.3754 45.5227C77.3754 45.3333 77.3091 45.1747 77.1765 45.0469C77.0439 44.9167 76.8403 44.8196 76.5657 44.7557L75.6566 44.5426C75.1571 44.4242 74.7901 44.2408 74.5558 43.9922C74.3237 43.7412 74.2077 43.4276 74.2077 43.0511C74.2077 42.7434 74.2942 42.4711 74.467 42.2344C74.6422 41.9976 74.8801 41.8118 75.1808 41.6768C75.4838 41.5419 75.8271 41.4744 76.2106 41.4744C76.7504 41.4744 77.1741 41.5928 77.4819 41.8295C77.792 42.0663 78.0122 42.3788 78.1424 42.767ZM81.7903 47.1136C81.2647 47.1136 80.8114 46.9976 80.4302 46.7656C80.0514 46.5312 79.7591 46.2045 79.5531 45.7855C79.3495 45.3641 79.2477 44.8741 79.2477 44.3153C79.2477 43.7566 79.3495 43.2642 79.5531 42.8381C79.7591 42.4096 80.0455 42.0758 80.4125 41.8366C80.7818 41.5952 81.2127 41.4744 81.7051 41.4744C81.9892 41.4744 82.2697 41.5218 82.5467 41.6165C82.8237 41.7112 83.0758 41.8651 83.3031 42.0781C83.5304 42.2888 83.7115 42.5682 83.8464 42.9162C83.9814 43.2642 84.0488 43.6927 84.0488 44.2017V44.5568H79.8443V43.8324H83.1966C83.1966 43.5246 83.135 43.25 83.0119 43.0085C82.8912 42.767 82.7183 42.5765 82.4934 42.4368C82.2709 42.2971 82.0081 42.2273 81.7051 42.2273C81.3713 42.2273 81.0824 42.3101 80.8386 42.4759C80.5971 42.6392 80.4113 42.8523 80.2811 43.1151C80.1509 43.3778 80.0858 43.6596 80.0858 43.9602V44.4432C80.0858 44.8551 80.1568 45.2043 80.2988 45.4908C80.4432 45.7749 80.6433 45.9915 80.899 46.1406C81.1547 46.2874 81.4518 46.3608 81.7903 46.3608C82.0105 46.3608 82.2093 46.33 82.3869 46.2685C82.5668 46.2045 82.7219 46.1098 82.8521 45.9844C82.9823 45.8565 83.0829 45.6979 83.1539 45.5085L83.9636 45.7358C83.8784 46.0104 83.7351 46.2519 83.5339 46.4602C83.3327 46.6662 83.0841 46.8272 82.7882 46.9432C82.4922 47.0568 82.1596 47.1136 81.7903 47.1136ZM87.3833 47.1136C86.9288 47.1136 86.5275 46.9988 86.1795 46.7692C85.8315 46.5372 85.5592 46.2105 85.3627 45.7891C85.1663 45.3653 85.068 44.8646 85.068 44.2869C85.068 43.714 85.1663 43.2169 85.3627 42.7955C85.5592 42.3741 85.8327 42.0485 86.1831 41.8189C86.5334 41.5893 86.9383 41.4744 87.3975 41.4744C87.7527 41.4744 88.0332 41.5336 88.2392 41.652C88.4475 41.768 88.6061 41.9006 88.715 42.0497C88.8263 42.1965 88.9127 42.3172 88.9743 42.4119H89.0453V39.7273H89.8833V47H89.0737V46.1619H88.9743C88.9127 46.2614 88.8251 46.3868 88.7115 46.5384C88.5978 46.6875 88.4357 46.8213 88.225 46.9396C88.0143 47.0556 87.7337 47.1136 87.3833 47.1136ZM87.497 46.3608C87.8332 46.3608 88.1172 46.2732 88.3493 46.098C88.5813 45.9205 88.7576 45.6754 88.8784 45.3629C88.9991 45.0481 89.0595 44.6847 89.0595 44.2727C89.0595 43.8655 89.0003 43.5092 88.8819 43.2038C88.7636 42.8961 88.5884 42.657 88.3564 42.4865C88.1243 42.3137 87.8379 42.2273 87.497 42.2273C87.1419 42.2273 86.8459 42.3184 86.6092 42.5007C86.3748 42.6806 86.1984 42.9257 86.0801 43.2358C85.9641 43.5436 85.9061 43.8892 85.9061 44.2727C85.9061 44.661 85.9653 45.0137 86.0836 45.331C86.2044 45.6458 86.3819 45.8968 86.6163 46.0838C86.853 46.2685 87.1466 46.3608 87.497 46.3608Z" fill="black"/>
<defs>
<filter id="filter0_d_1_175" x="0" y="0" width="152" height="203" filterUnits="userSpaceOnUse" color-interpolation-filters="sRGB">
<feFlood flood-opacity="0" result="BackgroundImageFix"/>
<feColorMatrix in="SourceAlpha" type="matrix" values="0 0 0 0 0 0 0 0 0 0 0 0 0 0 0 0 0 0 127 0" result="hardAlpha"/>
<feOffset dy="2"/>
<feGaussianBlur stdDeviation="2"/>
<feComposite in2="hardAlpha" operator="out"/>
<feColorMatrix type="matrix" values="0 0 0 0 0 0 0 0 0 0 0 0 0 0 0 0 0 0 0.25 0"/>
<feBlend mode="normal" in2="BackgroundImageFix" result="effect1_dropShadow_1_175"/>
<feBlend mode="normal" in="SourceGraphic" in2="effect1_dropShadow_1_175" result="shape"/>
</filter>
<filter id="filter1_d_1_175" x="34" y="60" width="84" height="84" filterUnits="userSpaceOnUse" color-interpolation-filters="sRGB">
<feFlood flood-opacity="0" result="BackgroundImageFix"/>
<feColorMatrix in="SourceAlpha" type="matrix" values="0 0 0 0 0 0 0 0 0 0 0 0 0 0 0 0 0 0 127 0" result="hardAlpha"/>
<feOffset dy="2"/>
<feGaussianBlur stdDeviation="2"/>
<feComposite in2="hardAlpha" operator="out"/>
<feColorMatrix type="matrix" values="0 0 0 0 0 0 0 0 0 0 0 0 0 0 0 0 0 0 0.25 0"/>
<feBlend mode="normal" in2="BackgroundImageFix" result="effect1_dropShadow_1_175"/>
<feBlend mode="normal" in="SourceGraphic" in2="effect1_dropShadow_1_175" result="shape"/>
</filter>
</defs>
</svg>
