<svg width="12" height="12" viewBox="0 0 12 12" fill="none" xmlns="http://www.w3.org/2000/svg">
<path d="M5.85309 6.27054L6.66836 5.49566L3.80625 2.77532L2.99098 3.5502L5.85309 6.27054ZM9.941 1.61024C9.40555 1.09818 8.76852 0.692184 8.06681 0.415783C7.3651 0.139381 6.61267 -0.00193495 5.85309 2.00094e-05H5.27489V2.19827H6.4313V1.13212C7.46827 1.25669 8.43028 1.7114 9.16057 2.42213C9.89085 3.13287 10.3464 4.05774 10.4528 5.04602C10.5593 6.03429 10.3105 7.02772 9.74697 7.8644C9.18341 8.70107 8.33834 9.33168 7.34946 9.65344C6.36058 9.97521 5.2862 9.96917 4.3014 9.6363C3.31659 9.30343 2.47943 8.66337 1.92634 7.82041C1.37324 6.97745 1.13682 5.9813 1.25561 4.99429C1.37439 4.00728 1.84137 3.0876 2.58046 2.38513L2.99098 2.00043L2.17571 1.22005L1.76519 1.61024C1.21295 2.1172 0.772457 2.72361 0.469426 3.3941C0.166395 4.06459 0.00688973 4.78573 0.000218311 5.51543C-0.0064531 6.24514 0.139842 6.9688 0.430569 7.6442C0.721295 8.31959 1.15063 8.93319 1.69352 9.44919C2.23641 9.96519 2.88199 10.3733 3.59258 10.6496C4.30317 10.9259 5.06455 11.065 5.83228 11.0586C6.60002 11.0523 7.35874 10.9007 8.06417 10.6126C8.7696 10.3246 9.40762 9.90596 9.941 9.38107C11.025 8.35049 11.6339 6.9529 11.6339 5.49566C11.6339 4.03841 11.025 2.64083 9.941 1.61024Z" fill="#8B8B8B"/>
</svg>
