<svg width="16" height="15" viewBox="0 0 16 15" fill="none" xmlns="http://www.w3.org/2000/svg">
<path d="M7.5639 8.50525L8.61746 7.45421L4.91878 3.76439L3.86522 4.81543L7.5639 8.50525ZM12.8467 2.1841C12.1547 1.48955 11.3315 0.938867 10.4247 0.563961C9.51785 0.189055 8.54549 -0.00262454 7.5639 2.71405e-05H6.81669V2.9817H8.3111V1.53559C9.65117 1.70456 10.8944 2.32131 11.8381 3.28534C12.7819 4.24937 13.3705 5.50385 13.5081 6.84433C13.6457 8.18481 13.3242 9.53228 12.5959 10.6671C11.8676 11.802 10.7756 12.6573 9.49764 13.0938C8.21972 13.5302 6.83131 13.522 5.55865 13.0705C4.286 12.619 3.20415 11.7508 2.48939 10.6075C1.77463 9.4641 1.46911 8.11293 1.62261 6.77417C1.77611 5.4354 2.37959 4.18797 3.3347 3.23514L3.86522 2.71335L2.81165 1.65486L2.28114 2.1841C1.56748 2.87173 0.998238 3.69426 0.606634 4.6037C0.21503 5.51314 0.00890353 6.49128 0.000282121 7.48104C-0.00833928 8.4708 0.180717 9.45237 0.55642 10.3685C0.932122 11.2845 1.48695 12.1168 2.18852 12.8167C2.89009 13.5166 3.72437 14.0701 4.64266 14.4449C5.56095 14.8197 6.54487 15.0083 7.53701 14.9997C8.52914 14.9911 9.50963 14.7855 10.4213 14.3948C11.3329 14.0042 12.1574 13.4363 12.8467 12.7243C14.2475 11.3265 15.0344 9.4308 15.0344 7.45421C15.0344 5.47763 14.2475 3.58197 12.8467 2.1841Z" fill="#7E9AC4"/>
</svg>
